<svg width="22" height="18" viewBox="0 0 22 18" fill="none" xmlns="http://www.w3.org/2000/svg">
<path id="Vector" d="M21.7002 5.11311C21.7757 5.1886 21.8356 5.27822 21.8765 5.37685C21.9173 5.47548 21.9383 5.58119 21.9383 5.68795C21.9383 5.79471 21.9173 5.90042 21.8765 5.99905C21.8356 6.09769 21.7757 6.18731 21.7002 6.2628C21.6247 6.33829 21.5351 6.39817 21.4365 6.43902C21.3379 6.47988 21.2321 6.5009 21.1254 6.5009C21.0186 6.5009 20.9129 6.47988 20.8143 6.43902C20.7156 6.39817 20.626 6.33829 20.5505 6.2628L18.6879 4.39912L16.8252 6.2628C16.6728 6.41525 16.466 6.5009 16.2504 6.5009C16.0348 6.5009 15.828 6.41525 15.6755 6.2628C15.5231 6.11034 15.4374 5.90356 15.4374 5.68795C15.4374 5.47234 15.5231 5.26557 15.6755 5.11311L17.5392 3.25045L15.6755 1.3878C15.6001 1.31231 15.5402 1.22269 15.4993 1.12406C15.4585 1.02542 15.4374 0.91971 15.4374 0.812952C15.4374 0.706193 15.4585 0.60048 15.4993 0.501848C15.5402 0.403217 15.6001 0.313598 15.6755 0.238108C15.828 0.08565 16.0348 0 16.2504 0C16.3571 0 16.4629 0.0210276 16.5615 0.0618823C16.6601 0.102737 16.7497 0.162618 16.8252 0.238108L18.6879 2.10178L20.5505 0.238108C20.626 0.162618 20.7156 0.102737 20.8143 0.0618823C20.9129 0.0210276 21.0186 0 21.1254 0C21.2321 0 21.3379 0.0210276 21.4365 0.0618823C21.5351 0.102737 21.6247 0.162618 21.7002 0.238108C21.7757 0.313598 21.8356 0.403217 21.8765 0.501848C21.9173 0.60048 21.9383 0.706193 21.9383 0.812952C21.9383 0.91971 21.9173 1.02542 21.8765 1.12406C21.8356 1.22269 21.7757 1.31231 21.7002 1.3878L19.8366 3.25045L21.7002 5.11311ZM11.3754 14.6255C11.1343 14.6255 10.8987 14.6969 10.6983 14.8308C10.4979 14.9648 10.3417 15.1551 10.2494 15.3778C10.1572 15.6005 10.133 15.8456 10.1801 16.082C10.2271 16.3184 10.3432 16.5355 10.5136 16.706C10.684 16.8764 10.9012 16.9925 11.1376 17.0395C11.374 17.0866 11.6191 17.0624 11.8418 16.9702C12.0645 16.8779 12.2548 16.7217 12.3887 16.5213C12.5227 16.3209 12.5941 16.0852 12.5941 15.8442C12.5941 15.521 12.4657 15.211 12.2372 14.9824C12.0086 14.7539 11.6986 14.6255 11.3754 14.6255ZM15.9162 11.2262C14.5965 10.267 13.0069 9.75038 11.3754 9.75038C9.74389 9.75038 8.15429 10.267 6.83453 11.2262C6.66025 11.353 6.54351 11.5439 6.50999 11.7569C6.47646 11.9698 6.52891 12.1873 6.65578 12.3616C6.78264 12.5359 6.97355 12.6526 7.18649 12.6862C7.39943 12.7197 7.61697 12.6672 7.79124 12.5404C8.83278 11.7829 10.0875 11.3749 11.3754 11.3749C12.6632 11.3749 13.918 11.7829 14.9595 12.5404C15.0458 12.6032 15.1436 12.6484 15.2474 12.6734C15.3512 12.6984 15.4588 12.7028 15.5643 12.6862C15.6697 12.6696 15.7709 12.6324 15.8619 12.5767C15.953 12.521 16.0322 12.4479 16.095 12.3616C16.1578 12.2753 16.203 12.1775 16.228 12.0737C16.253 11.97 16.2574 11.8623 16.2408 11.7569C16.2242 11.6514 16.187 11.5503 16.1313 11.4592C16.0756 11.3682 16.0025 11.289 15.9162 11.2262ZM12.9222 1.69959C13.0299 1.71292 13.1392 1.70453 13.2436 1.67493C13.348 1.64533 13.4454 1.59511 13.5301 1.52724C13.6148 1.45938 13.685 1.37523 13.7366 1.27978C13.7882 1.18432 13.8202 1.07949 13.8307 0.971472C13.8411 0.863453 13.8298 0.754436 13.7975 0.650856C13.7651 0.547275 13.7123 0.451229 13.6422 0.368387C13.5721 0.285546 13.4861 0.217587 13.3893 0.168523C13.2925 0.119458 13.1868 0.0902827 13.0786 0.0827175C12.5169 0.0278738 11.9431 0.000451744 11.3754 0.000451744C7.33617 0.00301395 3.42215 1.40242 0.296947 3.96139C0.214456 4.02914 0.146117 4.11248 0.0958326 4.20665C0.0455485 4.30081 0.014304 4.40396 0.00388282 4.5102C-0.00653839 4.61644 0.00406791 4.72369 0.0350961 4.82583C0.0661243 4.92797 0.116967 5.023 0.184721 5.10549C0.252475 5.18798 0.335813 5.25632 0.429978 5.30661C0.524142 5.35689 0.627289 5.38813 0.733529 5.39856C0.839768 5.40898 0.94702 5.39837 1.04916 5.36734C1.1513 5.33631 1.24633 5.28547 1.32882 5.21772C4.1627 2.89666 7.7123 1.62746 11.3754 1.62545C11.8913 1.62545 12.4113 1.65084 12.9222 1.69959ZM12.8897 6.60201C13.1021 6.62908 13.3165 6.57124 13.4865 6.44105C13.6565 6.31085 13.7682 6.11884 13.7973 5.90674C13.8265 5.69465 13.7708 5.47961 13.6423 5.30836C13.5138 5.13712 13.3229 5.02352 13.1111 4.99225C12.5359 4.9136 11.9559 4.87457 11.3754 4.87545C8.53499 4.8643 5.77596 5.82351 3.55507 7.59428C3.42427 7.69965 3.32933 7.84297 3.28334 8.00452C3.23734 8.16606 3.24254 8.33789 3.29822 8.49636C3.3539 8.65483 3.45733 8.79215 3.59427 8.88942C3.7312 8.98668 3.89492 9.03912 4.06288 9.03951C4.24728 9.04081 4.42653 8.97879 4.5707 8.86381C6.50376 7.32438 8.90425 6.49065 11.3754 6.50045C11.8819 6.49962 12.3878 6.53356 12.8897 6.60201Z" fill="white"/>
</svg>
