<svg width="20" height="22" viewBox="0 0 20 22" fill="none" xmlns="http://www.w3.org/2000/svg">
<g id="notification">
<path id="Vector" d="M10.3457 18.7424C8.52009 18.7424 6.69452 18.4046 4.96298 17.729C4.30483 17.4643 3.80339 16.9256 3.58401 16.2227C3.35679 15.5197 3.43514 14.7437 3.79555 14.0499L4.69658 12.3062C4.88462 11.9411 5.057 11.2107 5.057 10.7817V8.14331C5.057 4.74724 7.43102 1.98108 10.3457 1.98108C13.2603 1.98108 15.6343 4.74724 15.6343 8.14331V10.7817C15.6343 11.2016 15.8067 11.9411 15.9947 12.3154L16.8879 14.0499C17.2248 14.7072 17.2875 15.5015 17.0603 16.2227C16.8331 16.9439 16.3395 17.4916 15.7205 17.729C13.9968 18.4046 12.1712 18.7424 10.3457 18.7424ZM10.3457 3.35046C8.08133 3.35046 6.23225 5.49583 6.23225 8.14331V10.7817C6.23225 11.4481 5.9972 12.4341 5.70731 13.0092L4.80627 14.7529C4.6339 15.0907 4.58689 15.4467 4.68875 15.748C4.78277 16.0584 5.01782 16.2957 5.33906 16.4235C8.61411 17.7016 12.085 17.7016 15.3601 16.4235C15.6422 16.314 15.8615 16.0675 15.9634 15.7388C16.0652 15.4102 16.0417 15.0541 15.885 14.7529L14.984 13.0092C14.6863 12.4158 14.4591 11.439 14.4591 10.7725V8.14331C14.4591 5.49583 12.6178 3.35046 10.3457 3.35046Z" fill="white"/>
<path id="Vector_2" d="M11.803 3.59718C11.7482 3.59718 11.6933 3.58805 11.6385 3.5698C11.4112 3.49676 11.1919 3.44199 10.9803 3.40547C10.3143 3.30505 9.67186 3.35982 9.06856 3.5698C8.84918 3.65196 8.61413 3.5698 8.46527 3.37808C8.3164 3.18637 8.26939 2.91249 8.35557 2.666C8.67681 1.70743 9.46032 1.07751 10.3535 1.07751C11.2467 1.07751 12.0302 1.6983 12.3515 2.666C12.4298 2.91249 12.3906 3.18637 12.2418 3.37808C12.1242 3.52415 11.9597 3.59718 11.803 3.59718Z" fill="white"/>
<path id="Vector_3" d="M10.3456 20.8239C9.56988 20.8239 8.81772 20.4588 8.26926 19.8197C7.72081 19.1807 7.40741 18.3043 7.40741 17.4005H8.58267C8.58267 17.9391 8.77071 18.4686 9.09978 18.852C9.42885 19.2355 9.88329 19.4546 10.3456 19.4546C11.3171 19.4546 12.1084 18.5325 12.1084 17.4005H13.2837C13.2837 19.2902 11.9674 20.8239 10.3456 20.8239Z" fill="white"/>
</g>
</svg>
